<svg xmlns="http://www.w3.org/2000/svg" viewBox="0 0 120 120">
  <defs>
    <linearGradient id="bg" x1="18" y1="104" x2="101" y2="12" gradientUnits="userSpaceOnUse">
      <stop stop-color="#35118f"/>
      <stop offset="0.48" stop-color="#7c3aed"/>
      <stop offset="1" stop-color="#c84cff"/>
    </linearGradient>
  </defs>
  <rect x="8" y="8" width="104" height="104" rx="24" fill="url(#bg)"/>
  <path d="M29 55.5c0-4.6 2.2-8.9 5.9-11.7l18.5-13.7a11 11 0 0 1 13.2 0l18.5 13.7A14.6 14.6 0 0 1 91 55.5V91c0 4.4-3.6 8-8 8H69V74.5c0-5-4-9-9-9s-9 4-9 9V99H37c-4.4 0-8-3.6-8-8V55.5Z" fill="#fff" opacity="0.22"/>
  <path d="M42 39c1.3 0 2.3 1 2.3 2.3v19h4.2v-19a2.3 2.3 0 0 1 4.6 0v19h4.2v-19a2.3 2.3 0 0 1 4.6 0v25.4c0 6.4-4.1 11.7-9.8 13.7V97h-8.4V80.4c-5.7-2-9.8-7.3-9.8-13.7V41.3c0-1.3 1-2.3 2.3-2.3s2.3 1 2.3 2.3v19h4.2v-19c0-1.3 1-2.3 2.3-2.3Zm37 0c7.8 0 14.1 8.5 14.1 19 0 8.1-3.7 15-9 17.8V97h-9V75.8c-5.3-2.8-9-9.7-9-17.8 0-10.5 5.9-19 12.9-19Z" fill="#fff"/>
</svg>